<?xml version="1.0" encoding="UTF-8" standalone="no"?>
<svg
   xmlns:dc="http://purl.org/dc/elements/1.1/"
   xmlns:cc="http://creativecommons.org/ns#"
   xmlns:rdf="http://www.w3.org/1999/02/22-rdf-syntax-ns#"
   xmlns:svg="http://www.w3.org/2000/svg"
   xmlns="http://www.w3.org/2000/svg"
   xmlns:sodipodi="http://sodipodi.sourceforge.net/DTD/sodipodi-0.dtd"
   xmlns:inkscape="http://www.inkscape.org/namespaces/inkscape"
   inkscape:version="1.0 (4035a4f, 2020-05-01)"
   sodipodi:docname="ditrit_logo_new 2.svg"
   id="svg320"
   xml:space="preserve"
   stroke-linejoin="round"
   stroke-width="28.222"
   fill-rule="evenodd"
   preserveAspectRatio="xMidYMid"
   viewBox="0 0 15389.305 5034.7396"
   height="190.28937"
   width="581.64307"
   version="1.2"><metadata
   id="metadata324"><rdf:RDF><cc:Work
       rdf:about=""><dc:format>image/svg+xml</dc:format><dc:type
         rdf:resource="http://purl.org/dc/dcmitype/StillImage" /><dc:title></dc:title></cc:Work></rdf:RDF></metadata><sodipodi:namedview
   lock-margins="true"
   inkscape:current-layer="layer2"
   inkscape:window-maximized="0"
   inkscape:window-y="23"
   inkscape:window-x="32"
   inkscape:cy="232.07874"
   inkscape:cx="192.63266"
   inkscape:zoom="1"
   inkscape:snap-grids="false"
   showgrid="false"
   id="namedview322"
   inkscape:window-height="1107"
   inkscape:window-width="2048"
   inkscape:pageshadow="2"
   inkscape:pageopacity="0"
   guidetolerance="10"
   gridtolerance="10"
   objecttolerance="10"
   borderopacity="1"
   bordercolor="#666666"
   pagecolor="#ffffff"
   inkscape:document-rotation="0"
   inkscape:pagecheckerboard="true"
   fit-margin-top="2"
   fit-margin-left="2"
   fit-margin-right="2"
   fit-margin-bottom="2"
   units="px"
   showguides="false"><inkscape:grid
     originy="777.78809"
     originx="1668.1574"
     type="xygrid"
     id="grid990" /></sodipodi:namedview>
 <defs
   id="defs192"
   class="ClipPathGroup"><clipPath
     clipPathUnits="userSpaceOnUse"
     id="clipPath931"><rect
       style="fill:#ff0000;fill-rule:evenodd;stroke:none;stroke-width:200;stroke-miterlimit:4;stroke-dasharray:none;stroke-opacity:1"
       id="rect933"
       width="2210.0205"
       height="727.60413"
       x="-653.95514"
       y="-249.18976" /></clipPath><clipPath
     id="clipPath931-7"
     clipPathUnits="userSpaceOnUse"><rect
       y="-249.18976"
       x="-653.95514"
       height="727.60413"
       width="2210.0205"
       id="rect933-2"
       style="fill:#ff0000;fill-rule:evenodd;stroke:none;stroke-width:200;stroke-miterlimit:4;stroke-dasharray:none;stroke-opacity:1" /></clipPath><clipPath
     id="clipPath931-0"
     clipPathUnits="userSpaceOnUse"><rect
       y="-249.18976"
       x="-653.95514"
       height="727.60413"
       width="2210.0205"
       id="rect933-5"
       style="fill:#ff0000;fill-rule:evenodd;stroke:none;stroke-width:200;stroke-miterlimit:4;stroke-dasharray:none;stroke-opacity:1" /></clipPath></defs>
 <defs
   id="defs225" />
 <defs
   id="defs240" />
 <defs
   id="defs244"
   class="TextShapeIndex" />
 <defs
   id="defs276"
   class="EmbeddedBulletChars" />
 <g
   id="g281"
   transform="translate(-1196.8228,4057.076)">
  <g
   class="Master_Slide"
   id="id2">
   <g
   class="Background"
   id="bg-id2" />
   <g
   class="BackgroundObjects"
   id="bo-id2" />
  </g>
 </g>
 
<g
   transform="rotate(90,2603.1268,409.99028)"
   id="g1502" /><g
   style="display:inline"
   inkscape:label="Logo"
   id="layer1"
   inkscape:groupmode="layer"
   transform="translate(1518.6748,627.12247)" /><g
   inkscape:label="Texte"
   id="layer2"
   inkscape:groupmode="layer"
   transform="translate(1518.6748,627.12247)"><g
     style="font-style:normal;font-variant:normal;font-weight:normal;font-stretch:normal;font-size:2540px;line-height:1.25;font-family:Casual;-inkscape-font-specification:'Casual, Normal';font-variant-ligatures:normal;font-variant-caps:normal;font-variant-numeric:normal;font-variant-east-asian:normal;letter-spacing:0px;word-spacing:0px;fill:#ffffff;fill-opacity:1;stroke:none;stroke-width:1454.25"
     id="text1476"
     aria-label="DitRit"><path
       id="path876"
       style="font-style:normal;font-variant:normal;font-weight:normal;font-stretch:normal;font-size:2540px;font-family:Casual;-inkscape-font-specification:'Casual, Normal';font-variant-ligatures:normal;font-variant-caps:normal;font-variant-numeric:normal;font-variant-east-asian:normal;fill:#ffffff;fill-opacity:1;stroke-width:1454.25"
       d="m 5209.4642,2453.1968 q 17.78,-294.64 27.94,-515.62 10.16,-220.98 10.16,-373.38 0,-152.4 -10.16,-373.38 -10.16,-220.98002 -27.94,-515.62002 h 838.2 q 101.6,0 261.62,76.2 160.02,76.2 292.1,274.32002 132.08,198.12 132.08,538.48 0,317.5 -119.38,518.16 -119.38,198.12 -279.4,284.48 -160.02,86.36 -287.02,86.36 z m 381,-101.6 q 152.4,50.8 279.4,50.8 170.18,0 276.86,-124.46 109.22,-124.46 157.48,-314.96 48.26,-190.5 48.26,-398.78 0,-266.7 -76.2,-457.2 -76.2,-190.50002 -195.58,-287.02002 -119.38,-96.52 -248.92,-96.52 -25.4,0 -38.1,2.54 l -203.2,25.4 q -38.1,495.30002 -38.1,810.26002 0,312.42 38.1,789.94 z" /><path
       id="path878"
       style="font-style:normal;font-variant:normal;font-weight:normal;font-stretch:normal;font-size:2540px;font-family:Casual;-inkscape-font-specification:'Casual, Normal';font-variant-ligatures:normal;font-variant-caps:normal;font-variant-numeric:normal;font-variant-east-asian:normal;fill:#ffffff;fill-opacity:1;stroke-width:1454.25"
       d="m 7114.861,1030.7968 q -76.2,0 -127,-50.80002 -50.8,-50.8 -50.8,-127 0,-76.2 50.8,-127 50.8,-50.8 127,-50.8 76.2,0 127,50.8 50.8,50.8 50.8,127 0,76.2 -50.8,127 -50.8,50.80002 -127,50.80002 z m 203.2,127 q -5.08,15.24 -17.78,81.28 -10.16,66.04 -22.86,208.28 -10.16,142.24 -10.16,345.44 0,203.2 10.16,350.52 12.7,144.78 22.86,218.44 12.7,73.66 17.78,91.44 h -406.4 q 5.08,-20.32 15.24,-99.06 12.7,-81.28 22.86,-233.68 12.7,-152.4 12.7,-353.06 0,-200.66 -12.7,-335.28 -10.16,-137.16 -25.4,-210.82 -12.7,-76.2 -12.7,-63.5 z" /><path
       id="path880"
       style="font-style:normal;font-variant:normal;font-weight:normal;font-stretch:normal;font-size:2540px;font-family:Casual;-inkscape-font-specification:'Casual, Normal';font-variant-ligatures:normal;font-variant-caps:normal;font-variant-numeric:normal;font-variant-east-asian:normal;fill:#ffffff;fill-opacity:1;stroke-width:1454.25"
       d="m 7979.6517,929.19678 q -5.08,12.7 -17.78,55.88 -10.16,40.64002 -22.86,96.52002 -10.16,55.88 -10.16,101.6 h 381 v 76.2 h -381 q -5.08,55.88 -15.24,251.46 -10.16,195.58 -10.16,408.94 0,203.2 15.24,314.96 15.24,109.22 58.42,165.1 43.18,53.34 129.54,53.34 83.82,0 129.54,-71.12 48.26,-73.66 60.96,-114.3 12.7,-40.64 12.7,-43.18 h 50.8 q -2.54,2.54 -17.78,76.2 -12.7,73.66 -109.22,152.4 -93.98,76.2 -254,76.2 -203.2,0 -292.1,-124.46 -88.9,-124.46 -88.9,-332.74 0,-35.56 10.16,-289.56 15.24,-464.82 15.24,-523.24 h -228.6 v -76.2 h 228.6 q 0,-45.72 -12.7,-101.6 -10.16,-55.88 -22.86,-96.52002 -10.16,-43.18 -15.24,-55.88 z" /><path
       id="path882"
       style="font-style:normal;font-variant:normal;font-weight:normal;font-stretch:normal;font-size:2540px;font-family:Casual;-inkscape-font-specification:'Casual, Normal';font-variant-ligatures:normal;font-variant-caps:normal;font-variant-numeric:normal;font-variant-east-asian:normal;fill:#ffffff;fill-opacity:1;stroke-width:1454.25"
       d="m 9530.6392,1691.1968 q 88.9,114.3 121.92,289.56 35.56,175.26 35.56,345.44 0,50.8 -2.54,83.82 -2.54,33.02 -2.54,43.18 h -355.6 q 10.16,-66.04 10.16,-119.38 0,-147.32 -38.1,-317.5 -35.56,-172.72 -99.06,-274.32 -50.8,-81.28 -144.78,-154.94 -91.44,-73.66 -185.42,-73.66 h -76.2 q 0,398.78 7.62,541.02 7.62,142.24 43.18,398.78 h -381 q 17.78,-294.64 27.94,-515.62 10.16,-220.98 10.16,-373.38 0,-152.4 -10.16,-373.38 -10.16,-220.98002 -27.94,-515.62002 h 736.6 q 58.42,0 172.72,38.1 114.3,35.56 210.82,132.08 99.06,93.98 99.06,261.62002 0,195.58 -127,287.02 -124.46,88.9 -264.16,114.3 60.96,25.4 127,73.66 66.04,48.26 111.76,109.22 z m -736.6,-279.4 q 129.54,50.8 241.3,50.8 152.4,0 246.38,-91.44 96.52,-93.98 96.52,-264.16 0,-190.50002 -104.14,-284.48002 -104.14,-93.98 -246.38,-93.98 -106.68,0 -182.88,48.26 -33.02,170.18 -43.18,304.80002 -7.62,132.08 -7.62,330.2 z" /><path
       id="path884"
       style="font-style:normal;font-variant:normal;font-weight:normal;font-stretch:normal;font-size:2540px;font-family:Casual;-inkscape-font-specification:'Casual, Normal';font-variant-ligatures:normal;font-variant-caps:normal;font-variant-numeric:normal;font-variant-east-asian:normal;fill:#ffffff;fill-opacity:1;stroke-width:1454.25"
       d="m 10141.033,1030.7968 q -76.2,0 -127,-50.80002 -50.8001,-50.8 -50.8001,-127 0,-76.2 50.8001,-127 50.8,-50.8 127,-50.8 76.2,0 127,50.8 50.8,50.8 50.8,127 0,76.2 -50.8,127 -50.8,50.80002 -127,50.80002 z m 203.2,127 q -5.08,15.24 -17.78,81.28 -10.16,66.04 -22.86,208.28 -10.16,142.24 -10.16,345.44 0,203.2 10.16,350.52 12.7,144.78 22.86,218.44 12.7,73.66 17.78,91.44 h -406.4001 q 5.08,-20.32 15.24,-99.06 12.7,-81.28 22.86,-233.68 12.7,-152.4 12.7,-353.06 0,-200.66 -12.7,-335.28 -10.16,-137.16 -25.4,-210.82 -12.7,-76.2 -12.7,-63.5 z" /><path
       id="path886"
       style="font-style:normal;font-variant:normal;font-weight:normal;font-stretch:normal;font-size:2540px;font-family:Casual;-inkscape-font-specification:'Casual, Normal';font-variant-ligatures:normal;font-variant-caps:normal;font-variant-numeric:normal;font-variant-east-asian:normal;fill:#ffffff;fill-opacity:1;stroke-width:1454.25"
       d="m 11005.824,929.19678 q -5.08,12.7 -17.78,55.88 -10.16,40.64002 -22.86,96.52002 -10.16,55.88 -10.16,101.6 h 381 v 76.2 h -381 q -5.08,55.88 -15.24,251.46 -10.16,195.58 -10.16,408.94 0,203.2 15.24,314.96 15.24,109.22 58.42,165.1 43.18,53.34 129.54,53.34 83.82,0 129.54,-71.12 48.26,-73.66 60.96,-114.3 12.7,-40.64 12.7,-43.18 h 50.8 q -2.54,2.54 -17.78,76.2 -12.7,73.66 -109.22,152.4 -93.98,76.2 -254,76.2 -203.2,0 -292.1,-124.46 -88.9,-124.46 -88.9,-332.74 0,-35.56 10.16,-289.56 15.24,-464.82 15.24,-523.24 h -228.6 v -76.2 h 228.6 q 0,-45.72 -12.7,-101.6 -10.16,-55.88 -22.86,-96.52002 -10.16,-43.18 -15.24,-55.88 z" /></g><g
     style="font-style:normal;font-variant:normal;font-weight:normal;font-stretch:normal;font-size:1411.11px;line-height:1.25;font-family:Casual;-inkscape-font-specification:'Casual, Normal';font-variant-ligatures:normal;font-variant-caps:normal;font-variant-numeric:normal;font-variant-east-asian:normal;fill:#ffffff;fill-opacity:1;stroke:none;stroke-width:746.707"
     id="text1622"
     aria-label="Design it, Run it !"><path
       id="path889"
       style="font-style:normal;font-variant:normal;font-weight:normal;font-stretch:normal;font-size:1411.11px;font-family:Casual;-inkscape-font-specification:'Casual, Normal';font-variant-ligatures:normal;font-variant-caps:normal;font-variant-numeric:normal;font-variant-east-asian:normal;fill:#ffffff;fill-opacity:1;stroke-width:746.707"
       d="m 2778.5618,3992.9453 q 9.8778,-163.6887 15.5222,-286.4553 5.6445,-122.7666 5.6445,-207.4332 0,-84.6666 -5.6445,-207.4332 -5.6444,-122.7665 -15.5222,-286.4553 h 465.6663 q 56.4444,0 145.3443,42.3333 88.9,42.3333 162.2777,152.3999 73.3777,110.0666 73.3777,299.1553 0,176.3888 -66.3222,287.8665 -66.3221,110.0665 -155.2221,158.0443 -88.8999,47.9777 -159.4554,47.9777 z m 211.6665,-56.4444 q 84.6666,28.2222 155.2221,28.2222 94.5444,0 153.811,-69.1444 60.6777,-69.1444 87.4888,-174.9776 26.8111,-105.8333 26.8111,-221.5443 0,-148.1665 -42.3333,-253.9998 -42.3333,-105.8332 -108.6555,-159.4554 -66.3221,-53.6222 -138.2887,-53.6222 -14.1111,0 -21.1667,1.4111 l -112.8888,14.1111 q -21.1666,275.1665 -21.1666,450.1441 0,173.5665 21.1666,438.8552 z" /><path
       id="path891"
       style="font-style:normal;font-variant:normal;font-weight:normal;font-stretch:normal;font-size:1411.11px;font-family:Casual;-inkscape-font-specification:'Casual, Normal';font-variant-ligatures:normal;font-variant-caps:normal;font-variant-numeric:normal;font-variant-east-asian:normal;fill:#ffffff;fill-opacity:1;stroke-width:746.707"
       d="m 4415.6699,3428.5013 q -8.4667,11.2889 -191.9109,126.9999 -182.0332,114.2999 -294.922,184.8554 39.511,108.6555 115.711,173.5666 76.1999,64.911 159.4554,64.911 52.2111,0 79.0222,-2.8222 28.2222,-4.2333 56.4444,-18.3444 28.2222,-15.5222 62.0888,-49.3889 l 14.1111,14.1111 q -25.4,25.4 -50.8,45.1555 -23.9888,19.7556 -93.1332,43.7444 -67.7333,23.9889 -166.511,23.9889 -138.2888,0 -227.1887,-49.3888 -87.4888,-50.8 -128.411,-134.0555 -39.5111,-83.2555 -39.5111,-183.4443 0,-108.6555 43.7444,-204.6109 45.1555,-97.3666 136.8777,-158.0444 93.1333,-60.6777 228.5998,-60.6777 112.8888,0 182.0332,39.5111 69.1444,38.1 95.9555,84.6666 28.2222,46.5666 18.3444,59.2666 z m -197.5554,-8.4666 q 0,-50.8 -32.4555,-98.7777 -31.0444,-47.9778 -108.6555,-47.9778 -74.7888,0 -129.8221,63.5 -53.6222,62.0888 -53.6222,204.6109 0,86.0777 23.9889,165.0999 110.0666,-56.4444 204.6109,-131.2332 95.9555,-76.2 95.9555,-155.2221 z" /><path
       id="path893"
       style="font-style:normal;font-variant:normal;font-weight:normal;font-stretch:normal;font-size:1411.11px;font-family:Casual;-inkscape-font-specification:'Casual, Normal';font-variant-ligatures:normal;font-variant-caps:normal;font-variant-numeric:normal;font-variant-east-asian:normal;fill:#ffffff;fill-opacity:1;stroke-width:746.707"
       d="m 4797.7721,3245.057 q 77.6111,0 139.6999,22.5778 63.5,21.1666 103.011,47.9777 39.5111,25.4 39.5111,28.2222 -5.6444,14.1111 -25.4,59.2666 -18.3444,43.7444 -45.1555,84.6666 -25.4,40.9222 -47.9777,40.9222 -15.5222,0 -25.4,-18.3444 -8.4667,-19.7555 -21.1666,-63.5 -14.1111,-50.7999 -31.0445,-86.0777 -15.5222,-36.6888 -46.5666,-62.0888 -31.0444,-25.4 -81.8444,-25.4 -53.6222,0 -83.2555,29.6333 -29.6333,29.6333 -29.6333,83.2555 0,53.6222 28.2222,88.8999 28.2222,33.8667 69.1444,53.6222 42.3333,19.7556 112.8888,43.7444 73.3777,23.9889 118.5333,46.5667 46.5666,21.1666 77.611,60.6777 31.0444,39.5111 31.0444,101.5999 0,67.7333 -36.6888,126.9999 -35.2778,57.8555 -97.3666,91.7222 -60.6778,35.2777 -134.0555,35.2777 -63.4999,0 -142.5221,-22.5777 -77.611,-21.1667 -143.9332,-47.9778 -66.3222,-26.8111 -66.3222,-28.2222 0,-4.2333 19.7556,-56.4444 19.7555,-53.6222 43.7444,-94.5444 25.4,-40.9221 49.3888,-32.4555 12.7,4.2333 25.4,21.1667 14.1111,16.9333 38.1,55.0333 53.6222,81.8443 103.011,129.8221 49.3889,47.9777 115.711,47.9777 49.3889,0 80.4333,-35.2777 32.4555,-35.2778 32.4555,-77.6111 0,-50.7999 -49.3888,-84.6666 -49.3889,-33.8666 -152.3999,-76.1999 -76.1999,-32.4556 -125.5888,-57.8555 -47.9777,-25.4 -83.2555,-62.0889 -35.2777,-36.6888 -40.9222,-86.0777 l -1.4111,-19.7555 q 0,-53.6222 25.4,-112.8888 25.4,-60.6778 88.8999,-104.4222 63.5,-45.1555 169.3332,-45.1555 z" /><path
       id="path895"
       style="font-style:normal;font-variant:normal;font-weight:normal;font-stretch:normal;font-size:1411.11px;font-family:Casual;-inkscape-font-specification:'Casual, Normal';font-variant-ligatures:normal;font-variant-caps:normal;font-variant-numeric:normal;font-variant-east-asian:normal;fill:#ffffff;fill-opacity:1;stroke-width:746.707"
       d="m 5306.1022,3202.7237 q -42.3333,0 -70.5555,-28.2222 -28.2222,-28.2222 -28.2222,-70.5555 0,-42.3333 28.2222,-70.5555 28.2222,-28.2222 70.5555,-28.2222 42.3333,0 70.5555,28.2222 28.2222,28.2222 28.2222,70.5555 0,42.3333 -28.2222,70.5555 -28.2222,28.2222 -70.5555,28.2222 z m 112.8888,70.5555 q -2.8222,8.4667 -9.8777,45.1555 -5.6445,36.6889 -12.7,115.7111 -5.6445,79.0221 -5.6445,191.9109 0,112.8888 5.6445,194.7332 7.0555,80.4333 12.7,121.3555 7.0555,40.9221 9.8777,50.7999 h -225.7776 q 2.8223,-11.2889 8.4667,-55.0333 7.0556,-45.1555 12.7,-129.8221 7.0555,-84.6666 7.0555,-196.1443 0,-111.4777 -7.0555,-186.2665 -5.6444,-76.1999 -14.1111,-117.1221 -7.0556,-42.3333 -7.0556,-35.2778 z" /><path
       id="path897"
       style="font-style:normal;font-variant:normal;font-weight:normal;font-stretch:normal;font-size:1411.11px;font-family:Casual;-inkscape-font-specification:'Casual, Normal';font-variant-ligatures:normal;font-variant-caps:normal;font-variant-numeric:normal;font-variant-east-asian:normal;fill:#ffffff;fill-opacity:1;stroke-width:746.707"
       d="m 6167.5408,3216.8348 q 1.4111,4.2334 2.8223,21.1667 1.4111,15.5222 1.4111,38.0999 0,63.5 -18.3445,81.8444 -4.2333,4.2333 -8.4666,4.2333 -7.0556,0 -19.7556,-18.3444 -28.2222,-39.5111 -60.6777,-57.8555 -31.0444,-19.7555 -59.2666,-19.7555 -23.9889,0 -40.9222,12.7 52.2111,25.3999 84.6666,67.7332 33.8666,40.9222 33.8666,95.9555 0,62.0889 -40.9222,103.011 -40.9221,40.9222 -103.011,60.6778 -60.6777,19.7555 -124.1777,19.7555 -81.8443,0 -152.3998,-26.8111 -36.6889,4.2334 -62.0889,26.8111 -25.4,21.1667 -25.4,70.5555 0,43.7444 25.4,59.2666 25.4,14.1111 84.6666,14.1111 36.6889,0 57.8555,-1.4111 l 86.0777,-1.4111 q 131.2333,0 220.1332,39.5111 90.311,38.1 90.311,158.0443 0,86.0777 -52.211,156.6332 -50.8,71.9666 -129.8222,112.8888 -79.0221,40.9222 -156.6332,40.9222 -57.8555,0 -131.2332,-21.1666 -71.9666,-19.7556 -125.5888,-64.9111 -53.6222,-43.7444 -53.6222,-111.4777 0,-57.8555 36.6889,-91.7221 36.6889,-35.2778 87.4888,-50.8 -67.7333,-21.1666 -103.011,-66.3222 -35.2778,-45.1555 -35.2778,-101.5999 0,-73.3777 52.2111,-117.1221 53.6222,-45.1555 110.0666,-60.6777 -49.3889,-23.9889 -77.6111,-60.6778 -28.2222,-36.6888 -28.2222,-86.0777 0,-63.4999 45.1556,-108.6555 45.1555,-46.5666 110.0665,-67.7332 66.3222,-22.5778 126.9999,-21.1667 63.5,-2.8222 129.8222,25.4 l 25.3999,-25.4 q 52.2111,-52.211 115.7111,-52.211 21.1666,0 39.511,5.6444 18.3445,5.6444 28.2222,11.2889 11.2889,5.6444 14.1111,7.0555 z m -352.7775,380.9997 q 74.7889,-1.4111 100.1888,-36.6888 26.8111,-35.2778 26.8111,-118.5333 0,-86.0777 -26.8111,-126.9999 -25.3999,-42.3333 -100.1888,-42.3333 -76.1999,0 -108.6554,45.1555 -32.4556,43.7444 -32.4556,124.1777 0,79.0222 31.0445,117.1221 32.4555,36.6889 110.0665,38.1 z m 225.7776,437.4441 q 0,-55.0333 -32.4555,-74.7888 -31.0444,-21.1667 -90.311,-21.1667 -26.8111,0 -91.7222,5.6445 -64.911,5.6444 -95.9555,5.6444 -16.9333,0 -45.1555,-2.8222 -53.6222,56.4444 -53.6222,129.8221 0,71.9666 46.5667,119.9444 46.5666,49.3888 122.7665,49.3888 53.6222,0 110.0666,-28.2222 56.4444,-26.8111 93.1333,-74.7888 36.6888,-47.9778 36.6888,-108.6555 z" /><path
       id="path899"
       style="font-style:normal;font-variant:normal;font-weight:normal;font-stretch:normal;font-size:1411.11px;font-family:Casual;-inkscape-font-specification:'Casual, Normal';font-variant-ligatures:normal;font-variant-caps:normal;font-variant-numeric:normal;font-variant-east-asian:normal;fill:#ffffff;fill-opacity:1;stroke-width:746.707"
       d="m 6674.879,3992.9453 q 0,7.0556 7.0555,-21.1666 8.4667,-29.6333 14.1111,-98.7777 7.0556,-69.1444 7.0556,-190.4999 0,-172.1554 -14.1111,-256.822 -14.1111,-86.0777 -38.1,-111.4777 -22.5778,-26.8111 -60.6777,-26.8111 -83.2555,0 -150.9888,97.3666 l -1.4111,45.1555 q -2.8222,95.9555 -2.8222,167.9221 0,131.2332 5.6444,220.1332 7.0555,87.4888 14.1111,135.4665 8.4667,47.9778 8.4667,39.5111 h -225.7776 q 2.8222,-11.2889 8.4666,-55.0333 7.0556,-45.1555 12.7,-129.8221 7.0556,-84.6666 7.0556,-196.1443 0,-111.4777 -7.0556,-193.3221 -5.6444,-81.8443 -12.7,-122.7665 -5.6444,-40.9222 -8.4666,-50.8 h 211.6665 l -7.0556,86.0777 q 83.2555,-86.0777 218.7221,-86.0777 91.7221,0 136.8776,45.1555 46.5667,45.1556 60.6778,129.8222 14.1111,84.6666 14.1111,234.2442 0,135.4666 5.6444,211.6665 7.0555,74.7888 14.1111,105.8333 8.4667,29.6333 8.4667,21.1666 z" /><path
       id="path901"
       style="font-style:normal;font-variant:normal;font-weight:normal;font-stretch:normal;font-size:1411.11px;font-family:Casual;-inkscape-font-specification:'Casual, Normal';font-variant-ligatures:normal;font-variant-caps:normal;font-variant-numeric:normal;font-variant-east-asian:normal;fill:#ffffff;fill-opacity:1;stroke-width:746.707"
       d="m 7566.0832,3202.7237 q -42.3333,0 -70.5555,-28.2222 -28.2222,-28.2222 -28.2222,-70.5555 0,-42.3333 28.2222,-70.5555 28.2222,-28.2222 70.5555,-28.2222 42.3333,0 70.5555,28.2222 28.2222,28.2222 28.2222,70.5555 0,42.3333 -28.2222,70.5555 -28.2222,28.2222 -70.5555,28.2222 z m 112.8888,70.5555 q -2.8222,8.4667 -9.8778,45.1555 -5.6444,36.6889 -12.7,115.7111 -5.6444,79.0221 -5.6444,191.9109 0,112.8888 5.6444,194.7332 7.0556,80.4333 12.7,121.3555 7.0556,40.9221 9.8778,50.7999 h -225.7776 q 2.8222,-11.2889 8.4667,-55.0333 7.0555,-45.1555 12.6999,-129.8221 7.0556,-84.6666 7.0556,-196.1443 0,-111.4777 -7.0556,-186.2665 -5.6444,-76.1999 -14.1111,-117.1221 -7.0555,-42.3333 -7.0555,-35.2778 z" /><path
       id="path903"
       style="font-style:normal;font-variant:normal;font-weight:normal;font-stretch:normal;font-size:1411.11px;font-family:Casual;-inkscape-font-specification:'Casual, Normal';font-variant-ligatures:normal;font-variant-caps:normal;font-variant-numeric:normal;font-variant-east-asian:normal;fill:#ffffff;fill-opacity:1;stroke-width:746.707"
       d="m 8046.5221,3146.2793 q -2.8222,7.0556 -9.8778,31.0444 -5.6444,22.5778 -12.7,53.6222 -5.6444,31.0444 -5.6444,56.4444 h 211.6665 v 42.3333 h -211.6665 q -2.8222,31.0444 -8.4667,139.6999 -5.6444,108.6555 -5.6444,227.1887 0,112.8888 8.4667,174.9777 8.4666,60.6777 32.4555,91.7221 23.9889,29.6333 71.9666,29.6333 46.5666,0 71.9666,-39.5111 26.8111,-40.9222 33.8666,-63.4999 7.0556,-22.5778 7.0556,-23.9889 h 28.2222 q -1.4111,1.4111 -9.8778,42.3333 -7.0555,40.9222 -60.6777,84.6666 -52.2111,42.3333 -141.111,42.3333 -112.8888,0 -162.2777,-69.1444 -49.3888,-69.1444 -49.3888,-184.8554 0,-19.7555 5.6444,-160.8665 8.4667,-258.2332 8.4667,-290.6887 h -126.9999 v -42.3333 h 126.9999 q 0,-25.4 -7.0556,-56.4444 -5.6444,-31.0444 -12.6999,-53.6222 -5.6445,-23.9888 -8.4667,-31.0444 z" /><path
       id="path905"
       style="font-style:normal;font-variant:normal;font-weight:normal;font-stretch:normal;font-size:1411.11px;font-family:Casual;-inkscape-font-specification:'Casual, Normal';font-variant-ligatures:normal;font-variant-caps:normal;font-variant-numeric:normal;font-variant-east-asian:normal;fill:#ffffff;fill-opacity:1;stroke-width:746.707"
       d="m 8669.3673,3796.575 -194.3032,451.3072 h -100.5967 l 119.8892,-451.3072 z" /><path
       id="path907"
       style="font-style:normal;font-variant:normal;font-weight:normal;font-stretch:normal;font-size:1411.11px;font-family:Casual;-inkscape-font-specification:'Casual, Normal';font-variant-ligatures:normal;font-variant-caps:normal;font-variant-numeric:normal;font-variant-east-asian:normal;fill:#ffffff;fill-opacity:1;stroke-width:746.707"
       d="m 9916.9043,3569.6123 q 49.3888,63.5 67.7333,160.8666 19.7554,97.3665 19.7554,191.9109 0,28.2222 -1.411,46.5666 -1.411,18.3445 -1.411,23.9889 h -197.5555 q 5.6444,-36.6888 5.6444,-66.3222 0,-81.8443 -21.1666,-176.3887 -19.7556,-95.9555 -55.0333,-152.3999 -28.2222,-45.1555 -80.4333,-86.0777 -50.7999,-40.9222 -103.011,-40.9222 h -42.3333 q 0,221.5443 4.2333,300.5664 4.2333,79.0222 23.9889,221.5443 h -211.6665 q 9.8778,-163.6887 15.5222,-286.4553 5.6444,-122.7666 5.6444,-207.4332 0,-84.6666 -5.6444,-207.4332 -5.6444,-122.7665 -15.5222,-286.4553 H 9733.46 q 32.4555,0 95.9555,21.1667 63.4999,19.7555 117.1221,73.3777 55.0334,52.2111 55.0334,145.3443 0,108.6555 -70.5556,159.4554 -69.1444,49.3889 -146.7555,63.5 33.8667,14.1111 70.5555,40.9222 36.6889,26.8111 62.0889,60.6777 z m -409.2219,-155.2221 q 71.9666,28.2222 134.0554,28.2222 84.6666,0 136.8777,-50.7999 53.6222,-52.2111 53.6222,-146.7555 0,-105.8332 -57.8555,-158.0443 -57.8555,-52.2111 -136.8777,-52.2111 -59.2666,0 -101.5999,26.8111 -18.3444,94.5444 -23.9889,169.3332 -4.2333,73.3777 -4.2333,183.4443 z" /><path
       id="path909"
       style="font-style:normal;font-variant:normal;font-weight:normal;font-stretch:normal;font-size:1411.11px;font-family:Casual;-inkscape-font-specification:'Casual, Normal';font-variant-ligatures:normal;font-variant-caps:normal;font-variant-numeric:normal;font-variant-east-asian:normal;fill:#ffffff;fill-opacity:1;stroke-width:746.707"
       d="m 10806.345,3950.612 q 0,43.7444 29.633,43.7444 14.111,0 32.456,-9.8777 18.344,-9.8778 32.455,-19.7556 14.111,-11.2889 18.345,-14.1111 v 28.2222 q 0,2.8222 -18.345,16.9333 -16.933,14.1111 -49.389,26.8111 -31.044,12.7 -73.377,12.7 -79.023,0 -117.123,-39.5111 -38.099,-38.0999 -38.099,-87.4888 v -4.2333 q -35.278,56.4444 -97.367,93.1332 -60.678,38.1 -156.633,38.1 -91.722,0 -138.289,-40.9222 -46.567,-39.5111 -60.678,-103.011 -14.111,-63.5 -14.111,-158.0443 l 1.411,-107.2444 q 0,-81.8444 -7.055,-159.4554 -5.645,-79.0222 -12.7,-129.8221 -5.645,-50.8 -8.467,-63.5 h 225.778 q 0,-8.4666 -8.467,45.1555 -7.056,53.6222 -14.111,150.9888 -5.645,97.3666 -5.645,241.2998 0,105.8333 7.056,163.6888 7.056,56.4444 31.044,87.4888 23.989,31.0444 74.789,31.0444 66.322,0 114.3,-53.6222 47.978,-53.6221 77.611,-122.7665 5.645,-53.6222 5.645,-77.6111 0,-156.6332 -7.056,-259.6442 -5.644,-104.4222 -14.111,-159.4555 -7.056,-56.4443 -7.056,-46.5666 h 225.778 q 0,-9.8777 -8.467,46.5666 -7.055,55.0333 -14.111,159.4555 -5.644,103.011 -5.644,259.6442 z" /><path
       id="path911"
       style="font-style:normal;font-variant:normal;font-weight:normal;font-stretch:normal;font-size:1411.11px;font-family:Casual;-inkscape-font-specification:'Casual, Normal';font-variant-ligatures:normal;font-variant-caps:normal;font-variant-numeric:normal;font-variant-east-asian:normal;fill:#ffffff;fill-opacity:1;stroke-width:746.707"
       d="m 11440.132,3992.9453 q 0,7.0556 7.055,-21.1666 8.467,-29.6333 14.112,-98.7777 7.055,-69.1444 7.055,-190.4999 0,-172.1554 -14.111,-256.822 -14.111,-86.0777 -38.1,-111.4777 -22.578,-26.8111 -60.678,-26.8111 -83.255,0 -150.988,97.3666 l -1.412,45.1555 q -2.822,95.9555 -2.822,167.9221 0,131.2332 5.645,220.1332 7.055,87.4888 14.111,135.4665 8.466,47.9778 8.466,39.5111 h -225.777 q 2.822,-11.2889 8.466,-55.0333 7.056,-45.1555 12.7,-129.8221 7.056,-84.6666 7.056,-196.1443 0,-111.4777 -7.056,-193.3221 -5.644,-81.8443 -12.7,-122.7665 -5.644,-40.9222 -8.466,-50.8 h 211.666 l -7.055,86.0777 q 83.255,-86.0777 218.722,-86.0777 91.722,0 136.877,45.1555 46.567,45.1556 60.678,129.8222 14.111,84.6666 14.111,234.2442 0,135.4666 5.645,211.6665 7.055,74.7888 14.111,105.8333 8.466,29.6333 8.466,21.1666 z" /><path
       id="path913"
       style="font-style:normal;font-variant:normal;font-weight:normal;font-stretch:normal;font-size:1411.11px;font-family:Casual;-inkscape-font-specification:'Casual, Normal';font-variant-ligatures:normal;font-variant-caps:normal;font-variant-numeric:normal;font-variant-east-asian:normal;fill:#ffffff;fill-opacity:1;stroke-width:746.707"
       d="m 12331.335,3202.7237 q -42.333,0 -70.555,-28.2222 -28.223,-28.2222 -28.223,-70.5555 0,-42.3333 28.223,-70.5555 28.222,-28.2222 70.555,-28.2222 42.333,0 70.556,28.2222 28.222,28.2222 28.222,70.5555 0,42.3333 -28.222,70.5555 -28.223,28.2222 -70.556,28.2222 z m 112.889,70.5555 q -2.822,8.4667 -9.878,45.1555 -5.644,36.6889 -12.7,115.7111 -5.644,79.0221 -5.644,191.9109 0,112.8888 5.644,194.7332 7.056,80.4333 12.7,121.3555 7.056,40.9221 9.878,50.7999 h -225.778 q 2.823,-11.2889 8.467,-55.0333 7.056,-45.1555 12.7,-129.8221 7.056,-84.6666 7.056,-196.1443 0,-111.4777 -7.056,-186.2665 -5.644,-76.1999 -14.111,-117.1221 -7.056,-42.3333 -7.056,-35.2778 z" /><path
       id="path915"
       style="font-style:normal;font-variant:normal;font-weight:normal;font-stretch:normal;font-size:1411.11px;font-family:Casual;-inkscape-font-specification:'Casual, Normal';font-variant-ligatures:normal;font-variant-caps:normal;font-variant-numeric:normal;font-variant-east-asian:normal;fill:#ffffff;fill-opacity:1;stroke-width:746.707"
       d="m 12811.774,3146.2793 q -2.822,7.0556 -9.878,31.0444 -5.644,22.5778 -12.7,53.6222 -5.644,31.0444 -5.644,56.4444 h 211.666 v 42.3333 h -211.666 q -2.822,31.0444 -8.467,139.6999 -5.644,108.6555 -5.644,227.1887 0,112.8888 8.466,174.9777 8.467,60.6777 32.456,91.7221 23.989,29.6333 71.967,29.6333 46.566,0 71.966,-39.5111 26.811,-40.9222 33.867,-63.4999 7.055,-22.5778 7.055,-23.9889 h 28.223 q -1.412,1.4111 -9.878,42.3333 -7.056,40.9222 -60.678,84.6666 -52.211,42.3333 -141.111,42.3333 -112.889,0 -162.278,-69.1444 -49.388,-69.1444 -49.388,-184.8554 0,-19.7555 5.644,-160.8665 8.467,-258.2332 8.467,-290.6887 h -127 v -42.3333 h 127 q 0,-25.4 -7.056,-56.4444 -5.644,-31.0444 -12.7,-53.6222 -5.644,-23.9888 -8.467,-31.0444 z" /><path
       id="path917"
       style="font-style:normal;font-variant:normal;font-weight:normal;font-stretch:normal;font-size:1411.11px;font-family:Casual;-inkscape-font-specification:'Casual, Normal';font-variant-ligatures:normal;font-variant-caps:normal;font-variant-numeric:normal;font-variant-east-asian:normal;fill:#ffffff;fill-opacity:1;stroke-width:746.707"
       d="m 13817.714,2966.9967 -17.915,743.451 h -117.133 l -19.292,-743.451 z m -6.89,1025.9486 h -140.56 v -145.3829 h 140.56 z" /></g><path
     sodipodi:open="true"
     sodipodi:arc-type="arc"
     sodipodi:end="6.2434388"
     sodipodi:start="3.1803326"
     sodipodi:ry="769.82794"
     sodipodi:rx="722.45831"
     sodipodi:cy="1277.1267"
     sodipodi:cx="998.70917"
     sodipodi:type="arc"
     id="path3690"
     style="fill:none;fill-rule:evenodd;stroke:#ffffff;stroke-width:317.5;stroke-linecap:round;stroke-miterlimit:4;stroke-dasharray:none;stroke-opacity:1;paint-order:stroke fill markers"
     d="M 276.79291,1247.3111 A 722.45831,769.82794 0 0 1 998.34557,507.29886 722.45831,769.82794 0 0 1 1720.5969,1246.5368" /><path
     sodipodi:nodetypes="ccccc"
     d="M 1389.7013,-85.71302 C 1377.8076,136.31775 1200.4101,399.98977 998.70597,403.0312 776.6752,391.13748 610.75209,115.99107 607.71057,-85.71302 c 11.89372,-222.03077 189.2913,-387.95397 390.9954,-390.9954 222.03063,11.89372 387.95383,189.2913 390.99533,390.9954 z"
     style="fill:#ffffff;fill-opacity:1;fill-rule:evenodd;stroke:none;stroke-width:52.9167;stroke-linecap:round;paint-order:stroke fill markers"
     id="path3692" /><path
     transform="rotate(90)"
     style="fill:none;fill-rule:evenodd;stroke:#ffffff;stroke-width:317.5;stroke-linecap:round;stroke-miterlimit:4;stroke-dasharray:none;stroke-opacity:1;paint-order:stroke fill markers"
     id="path3701"
     sodipodi:type="arc"
     sodipodi:cx="1890.2615"
     sodipodi:cy="-1610.3403"
     sodipodi:rx="722.45831"
     sodipodi:ry="769.82794"
     sodipodi:start="3.1803326"
     sodipodi:end="6.2434388"
     sodipodi:arc-type="arc"
     sodipodi:open="true"
     d="m 1168.3452,-1640.156 a 722.45831,769.82794 0 0 1 721.5527,-740.0122 722.45831,769.82794 0 0 1 722.2513,739.238" /><path
     id="path3703"
     style="fill:#ffffff;fill-opacity:1;fill-rule:evenodd;stroke:none;stroke-width:52.9167;stroke-linecap:round;paint-order:stroke fill markers"
     d="m 2973.1801,2281.2536 c -222.0307,-11.8937 -485.7028,-189.2912 -488.7442,-390.9953 11.8937,-222.0308 287.0401,-387.9539 488.7442,-390.9954 222.0308,11.8937 387.954,189.2913 390.9954,390.9954 -11.8937,222.0307 -189.2913,387.9539 -390.9954,390.9953 z"
     sodipodi:nodetypes="ccccc" /><path
     transform="scale(-1)"
     style="fill:none;fill-rule:evenodd;stroke:#ffffff;stroke-width:317.5;stroke-linecap:round;stroke-miterlimit:4;stroke-dasharray:none;stroke-opacity:1;paint-order:stroke fill markers"
     id="path3719"
     sodipodi:type="arc"
     sodipodi:cx="-998.68073"
     sodipodi:cy="-2503.3677"
     sodipodi:rx="722.45831"
     sodipodi:ry="769.82794"
     sodipodi:start="3.1803326"
     sodipodi:end="6.2434388"
     sodipodi:arc-type="arc"
     sodipodi:open="true"
     d="m -1720.597,-2533.1833 a 722.45831,769.82794 0 0 1 721.55268,-740.0122 722.45831,769.82794 0 0 1 722.25132,739.2379" /><path
     id="path3721"
     style="fill:#ffffff;fill-opacity:1;fill-rule:evenodd;stroke:none;stroke-width:52.9167;stroke-linecap:round;paint-order:stroke fill markers"
     d="m 607.68863,3866.2075 c 11.89371,-222.0307 189.29121,-485.7028 390.9953,-488.7442 222.03077,11.8937 387.95387,287.0401 390.99537,488.7442 -11.8937,222.0308 -189.2913,387.954 -390.99537,390.9954 -222.03067,-11.8937 -387.95387,-189.2913 -390.9953,-390.9954 z"
     sodipodi:nodetypes="ccccc" /><path
     transform="rotate(-90)"
     sodipodi:open="true"
     sodipodi:arc-type="arc"
     sodipodi:end="6.2434388"
     sodipodi:start="3.1803326"
     sodipodi:ry="769.82794"
     sodipodi:rx="722.45831"
     sodipodi:cy="387.04953"
     sodipodi:cx="-1890.233"
     sodipodi:type="arc"
     id="path3727"
     style="fill:none;fill-rule:evenodd;stroke:#ffffff;stroke-width:317.5;stroke-linecap:round;stroke-miterlimit:4;stroke-dasharray:none;stroke-opacity:1;paint-order:stroke fill markers"
     d="m -2612.1493,357.2339 a 722.45831,769.82794 0 0 1 721.5527,-740.01221 722.45831,769.82794 0 0 1 722.2513,739.23792" /><path
     sodipodi:nodetypes="ccccc"
     d="m -975.79022,1499.2409 c 222.03077,11.8937 485.70279,189.2912 488.74422,390.9953 -11.89372,222.0308 -287.04013,387.9539 -488.74422,390.9954 -222.03078,-11.8937 -387.95398,-189.2913 -390.99538,-390.9954 11.8937,-222.0306 189.2913,-387.9538 390.99538,-390.9953 z"
     style="fill:#ffffff;fill-opacity:1;fill-rule:evenodd;stroke:none;stroke-width:52.9167;stroke-linecap:round;paint-order:stroke fill markers"
     id="path3729" /></g></svg>
