<?xml version="1.0" encoding="UTF-8" standalone="no"?>
<svg
   xmlns:dc="http://purl.org/dc/elements/1.1/"
   xmlns:cc="http://creativecommons.org/ns#"
   xmlns:rdf="http://www.w3.org/1999/02/22-rdf-syntax-ns#"
   xmlns:svg="http://www.w3.org/2000/svg"
   xmlns="http://www.w3.org/2000/svg"
   xmlns:sodipodi="http://sodipodi.sourceforge.net/DTD/sodipodi-0.dtd"
   xmlns:inkscape="http://www.inkscape.org/namespaces/inkscape"
   version="1.2"
   width="94.100403"
   height="120"
   viewBox="0 0 2489.7397 3174.9999"
   preserveAspectRatio="xMidYMid"
   fill-rule="evenodd"
   stroke-width="28.222"
   stroke-linejoin="round"
   xml:space="preserve"
   id="svg320"
   sodipodi:docname="ditrit_assoc_logo.svg"
   inkscape:version="1.0 (4035a4f, 2020-05-01)"
   inkscape:export-filename="/Users/Thierry/Sites/src.ditrit.github.io/static/images/ditrit_assoc_logo.png"
   inkscape:export-xdpi="72"
   inkscape:export-ydpi="72"><metadata
   id="metadata324"><rdf:RDF><cc:Work
       rdf:about=""><dc:format>image/svg+xml</dc:format><dc:type
         rdf:resource="http://purl.org/dc/dcmitype/StillImage" /><dc:title></dc:title></cc:Work></rdf:RDF></metadata><sodipodi:namedview
   units="px"
   fit-margin-bottom="2"
   fit-margin-right="2"
   fit-margin-left="2"
   fit-margin-top="2"
   inkscape:pagecheckerboard="true"
   inkscape:document-rotation="0"
   pagecolor="#ffffff"
   bordercolor="#666666"
   borderopacity="1"
   objecttolerance="10"
   gridtolerance="10"
   guidetolerance="10"
   inkscape:pageopacity="0"
   inkscape:pageshadow="2"
   inkscape:window-width="1773"
   inkscape:window-height="979"
   id="namedview322"
   showgrid="false"
   inkscape:snap-grids="false"
   inkscape:zoom="1"
   inkscape:cx="-33.79414"
   inkscape:cy="-88.75173"
   inkscape:window-x="50"
   inkscape:window-y="23"
   inkscape:window-maximized="0"
   inkscape:current-layer="layer2"
   lock-margins="true"><inkscape:grid
     id="grid990"
     type="xygrid"
     originx="-6683.8298"
     originy="1170.3039" /></sodipodi:namedview>
 <defs
   class="ClipPathGroup"
   id="defs192" />
 <defs
   id="defs225" />
 <defs
   id="defs240" />
 <defs
   class="TextShapeIndex"
   id="defs244" />
 <defs
   class="EmbeddedBulletChars"
   id="defs276" />
 <g
   transform="translate(-9548.8114,4449.5913)"
   id="g281">
  <g
   id="id2"
   class="Master_Slide">
   <g
   id="bg-id2"
   class="Background" />
   <g
   id="bo-id2"
   class="BackgroundObjects" />
  </g>
 </g>
 
<g
   id="g1502"
   transform="rotate(90,-1769.1248,-3569.746)" /><g
   transform="translate(-6833.3132,1019.6378)"
   inkscape:groupmode="layer"
   id="layer1"
   inkscape:label="Logo"
   style="display:inline" /><g
   transform="translate(-6833.3132,1019.6378)"
   inkscape:groupmode="layer"
   id="layer2"
   inkscape:label="Texte"><g
     inkscape:export-ydpi="72"
     inkscape:export-xdpi="72"
     transform="matrix(0.30033468,0,0,0.30033468,5652.0245,397.31345)"
     id="g1552"><g
       aria-label="DitRit"
       transform="matrix(-0.69017839,1.4010927,-1.4010927,-0.69017839,14421.663,-10512.032)"
       id="text1476"
       style="font-style:normal;font-variant:normal;font-weight:normal;font-stretch:normal;font-size:987.778px;line-height:1.25;font-family:Casual;-inkscape-font-specification:'Casual, Normal';font-variant-ligatures:normal;font-variant-caps:normal;font-variant-numeric:normal;font-variant-east-asian:normal;letter-spacing:132.292px;word-spacing:0px;fill:#44445a;fill-opacity:1;stroke:none;stroke-width:1454.25"><path
         d="m 11445.116,559.43707 q -114.711,4.26201 -200.625,8.68739 -85.914,4.42537 -144.899,10.18934 -58.986,5.76398 -144.131,18.05412 -85.145,12.29014 -198.512,30.31549 l -31.702,-324.42151 q -3.842,-39.32382 19.598,-104.14082 23.441,-64.817 95.127,-123.431124 71.686,-58.614128 203.421,-71.4869981 122.887,-12.0082746 205.067,26.6079831 81.196,38.712323 120.673,97.381089 39.478,58.66876 44.281,107.82353 z m -53.734,-143.62167 q 13.898,-60.90706 9.095,-110.06183 -6.436,-65.8674 -58.643,-102.45016 -52.302,-37.56586 -127.86,-49.03971 -75.557,-11.47385 -156.171,-3.59642 -103.225,10.08695 -174.075,46.78478 -70.851,36.69783 -103.693,86.55383 -32.843,49.856 -27.943,99.99387 0.96,9.83095 2.424,14.65037 l 17.516,77.68697 q 193.145,-3.98648 315.049,-15.89868 120.92,-11.81615 304.301,-44.62302 z"
         style="font-style:normal;font-variant:normal;font-weight:normal;font-stretch:normal;font-size:987.778px;font-family:Casual;-inkscape-font-specification:'Casual, Normal';font-variant-ligatures:normal;font-variant-caps:normal;font-variant-numeric:normal;font-variant-east-asian:normal;fill:#44445a;fill-opacity:1;stroke-width:1454.25"
         id="path910" /><path
         d="m 10777.744,-155.32933 q 7.859,28.5721 -5.949,52.85976 -13.809,24.287659 -42.381,32.147043 -28.572,7.859385 -52.86,-5.949093 -24.287,-13.808477 -32.147,-42.38058 -7.859,-28.5721 5.95,-52.85976 13.808,-24.28765 42.38,-32.14704 28.572,-7.85938 52.86,5.9491 24.288,13.80847 32.147,42.38057 z m 26.662,-89.29124 q 6.238,0.33293 32.31,-1.71652 25.811,-3.00185 80.455,-12.91069 54.383,-10.86123 130.575,-31.81959 76.192,-20.95836 130.384,-39.96279 52.977,-19.69484 79.549,-31.10186 26.31,-12.35942 32.452,-16.09809 l 41.917,152.38454 q -8.143,0.19103 -38.715,4.50278 -31.787,3.62133 -89.979,15.53048 -58.454,10.95676 -133.694,31.65313 -75.24,20.69638 -124.408,39.34331 -50.382,17.95651 -76.429,31.26833 -27.263,12.621406 -22.501,11.311508 z"
         style="font-style:normal;font-variant:normal;font-weight:normal;font-stretch:normal;font-size:987.778px;font-family:Casual;-inkscape-font-specification:'Casual, Normal';font-variant-ligatures:normal;font-variant-caps:normal;font-variant-numeric:normal;font-variant-east-asian:normal;fill:#44445a;fill-opacity:1;stroke-width:1454.25"
         id="path912" /><path
         d="m 10609.198,-512.96774 q 5.319,-0.10156 22.709,-2.08477 16.097,-2.50888 38.037,-6.41356 21.557,-4.81464 37.936,-11.73194 l -57.644,-136.49368 27.298,-11.52883 57.645,136.49369 q 20.787,-6.63456 92.391,-32.58539 71.604,-25.95082 148.041,-58.23154 72.796,-30.74353 110.529,-53.11223 36.822,-21.9844 50.308,-45.90815 12.576,-23.53947 -0.49,-54.47803 -12.682,-30.02861 -45.078,-35.64762 -33.69,-6.14467 -50.171,-4.54575 -16.481,1.59892 -17.391,1.98322 l -7.685,-18.19916 q 1.294,0.52566 29.988,-5.15912 28.311,-6.59475 71.122,16.07053 41.518,22.13962 65.729,79.46696 30.743,72.79663 -0.394,123.47558 -31.138,50.67894 -105.755,82.19107 -12.739,5.38012 -105.272,40.16971 -168.828,64.86609 -189.757,73.70486 l 34.586,81.89621 -27.298,11.52883 -34.587,-81.89621 q -16.379,6.9173 -34.477,19.92156 -18.482,12.0943 -31.119,22.7928 -13.933,10.17283 -17.714,13.91422 z"
         style="font-style:normal;font-variant:normal;font-weight:normal;font-stretch:normal;font-size:987.778px;font-family:Casual;-inkscape-font-specification:'Casual, Normal';font-variant-ligatures:normal;font-variant-caps:normal;font-variant-numeric:normal;font-variant-east-asian:normal;fill:#44445a;fill-opacity:1;stroke-width:1454.25"
         id="path914" /><path
         d="m 10546.059,-1220.136 q 18.184,-53.2952 68.112,-101.4349 49.386,-48.9655 104.71,-85.2865 16.514,-10.8421 27.791,-17.0637 11.276,-6.2216 14.579,-8.39 l 75.895,115.602 q -23.638,10.7918 -40.978,22.176 -47.892,31.4421 -95.084,80.149 -48.56,48.4233 -68.037,90.7507 -15.581,33.862 -19.469,80.135 -4.431,45.44722 15.627,75.99918 l 16.263,24.77187 q 129.64,-85.11045 174.254,-117.94545 44.615,-32.8351 120.424,-99.1479 l 81.315,123.8593 q -99.579,57.10407 -173.586,100.96427 -74.006,43.8602 -123.55,76.38648 -49.544,32.52628 -119.214,82.99231 -69.67,50.46603 -161.66,119.13028 l -157.21,-239.46132 q -12.468,-18.99176 -24.477,-64.28113 -12.835,-44.74729 -2.057,-96.72489 9.41,-52.2613 63.908,-88.0402 63.581,-41.7421 120.413,-19.9714 55.463,21.487 93.536,61.481 -4.753,-25.2385 -3.159,-57.0074 1.594,-31.769 11.654,-59.6426 z m 66.38,299.09283 q -11.133,-52.95425 -34.985,-89.28633 -32.527,-49.5437 -82.311,-60.5799 -51.152,-11.3198 -106.475,25.0012 -61.93,40.6579 -70.256,94.57061 -8.325,53.91275 22.032,100.15356 22.769,34.6806 54.721,49.15247 62.371,-25.58654 108.303,-51.01518 44.564,-25.71226 108.971,-67.99643 z"
         style="font-style:normal;font-variant:normal;font-weight:normal;font-stretch:normal;font-size:987.778px;font-family:Casual;-inkscape-font-specification:'Casual, Normal';font-variant-ligatures:normal;font-variant-caps:normal;font-variant-numeric:normal;font-variant-east-asian:normal;fill:#44445a;fill-opacity:1;stroke-width:1454.25"
         id="path916" /><path
         d="m 10147.809,-1294.2473 q 19.953,21.9092 18.649,49.8173 -1.305,27.9082 -23.214,47.8612 -21.909,19.953 -49.817,18.6489 -27.908,-1.3041 -47.861,-23.2132 -19.953,-21.9092 -18.649,-49.8173 1.304,-27.9082 23.213,-47.8612 21.909,-19.953 49.817,-18.6489 27.909,1.3041 47.862,23.2132 z m -16.693,-91.6795 q 5.712,-2.5299 28.025,-16.171 21.649,-14.3714 65.871,-47.9656 43.558,-34.3244 101.982,-87.5325 58.425,-53.2081 98.122,-94.7051 38.302,-41.5623 56.82,-63.7715 17.854,-22.9394 21.636,-29.0557 l 106.416,116.8488 q -7.173,3.8602 -32.473,21.5571 -26.695,17.6317 -73.174,54.6166 -47.144,36.2545 -104.838,88.7975 -57.694,52.543 -93.075,91.4448 -36.776,38.8367 -53.964,62.5065 -18.584,23.6045 -14.932,20.279 z"
         style="font-style:normal;font-variant:normal;font-weight:normal;font-stretch:normal;font-size:987.778px;font-family:Casual;-inkscape-font-specification:'Casual, Normal';font-variant-ligatures:normal;font-variant-caps:normal;font-variant-numeric:normal;font-variant-east-asian:normal;fill:#44445a;fill-opacity:1;stroke-width:1454.25"
         id="path918" /><path
         d="m 9835.4993,-1536.7157 q 4.6951,-2.5002 19.2997,-12.1479 13.2126,-9.5298 31.0026,-22.9519 17.0351,-14.0591 28.5023,-27.647 l -113.2323,-95.5605 19.1121,-22.6465 113.2323,95.5606 q 15.5253,-15.3333 67.599,-70.9109 52.074,-55.5777 105.588,-118.9878 50.966,-60.3905 74.468,-97.4278 22.864,-36.2823 24.047,-63.7199 0.545,-26.6827 -25.121,-48.3431 -24.911,-21.0233 -56.337,-11.3539 -32.817,9.7872 -46.785,18.68 -13.968,8.8928 -14.605,9.6476 l -15.097,-12.7414 q 1.392,-0.1178 24.396,-18.1869 22.249,-18.7063 70.684,-17.8989 47.043,0.9251 94.6,41.0605 60.391,50.9656 55.595,110.2523 -4.795,59.2867 -57.035,121.187 -8.919,10.5684 -75.645,83.5083 -121.114,134.321 -135.766,151.6833 l 67.939,57.3363 -19.112,22.6465 -67.939,-57.3363 q -11.4675,13.5878 -21.7086,33.3806 -10.996,19.1557 -17.4147,34.4191 -7.8107,15.3813 -9.4863,20.4299 z"
         style="font-style:normal;font-variant:normal;font-weight:normal;font-stretch:normal;font-size:987.778px;font-family:Casual;-inkscape-font-specification:'Casual, Normal';font-variant-ligatures:normal;font-variant-caps:normal;font-variant-numeric:normal;font-variant-east-asian:normal;fill:#44445a;fill-opacity:1;stroke-width:1454.25"
         id="path920" /></g><g
       transform="matrix(1.5618601,0,0,1.5618601,6530.1018,-2349.9244)"
       id="g926"><g
         id="g3006"
         transform="rotate(-90,998.69492,1890.2473)"><path
           id="path3000"
           clip-path="none"
           style="fill:#44445a;fill-opacity:1;fill-rule:evenodd;stroke:none;stroke-width:11.3386;stroke-linecap:round;paint-order:stroke fill markers"
           d="m 96.630859,1.8554688 c -8.368117,0.034532 -15.134809,7.333024 -15.134765,16.3242192 1.9e-5,9.015724 6.802351,16.324362 15.193359,16.324218 8.391007,1.42e-4 15.193337,-7.308495 15.193357,-16.324218 -2e-5,-9.0157236 -6.80235,-16.3243616 -15.193357,-16.3242192 -0.01953,-4.05e-5 -0.03906,-4.05e-5 -0.05859,0 z m -5.777343,6.4785156 c 0.0033,-7.7e-6 0.0065,-7.7e-6 0.0098,0 1.598493,-4.586e-4 2.894508,1.8176346 2.894531,4.0605466 -2.3e-5,2.242912 -1.296038,4.061006 -2.894531,4.060547 -1.598493,4.59e-4 -2.894508,-1.817635 -2.894531,-4.060547 1.5e-5,-2.237571 1.290088,-4.0534539 2.884766,-4.0605466 z m 11.652344,0 c 0.003,-7.7e-6 0.007,-7.7e-6 0.01,0 1.59773,0.00105 2.89256,1.8187036 2.89258,4.0605466 -2e-5,2.241843 -1.29485,4.059494 -2.89258,4.060547 -1.59849,4.54e-4 -2.894503,-1.817638 -2.894526,-4.060547 1.6e-5,-2.23757 1.290086,-4.0534536 2.884766,-4.0605466 z M 89.876953,24.75 96.689451,24.875 103.50195,25 c -1.16368,0.927235 -2.30918,1.896104 -3.609372,2.630859 -1.657429,0.99125 -3.71528,1.241428 -5.5625,0.6875 C 92.494639,27.714655 90.781591,26.487948 89.876953,24.75 Z"
           transform="matrix(26.458333,0,0,26.458333,-1559.5468,-623.29761)"
           sodipodi:nodetypes="ccccccsccccssccccscccccc" /><path
           sodipodi:nodetypes="ccccccsccccssccccscccccc"
           d="m 997.14465,4354.7004 c -221.40643,-0.9137 -400.44182,-194.0196 -400.44066,-431.9117 5.1e-4,-238.541 179.97887,-431.9154 401.99096,-431.9116 222.01205,0 401.99035,193.3706 401.99085,431.9116 -5e-4,238.5411 -179.9788,431.9154 -401.99085,431.9117 -0.51674,0 -1.03347,0 -1.5502,0 z M 844.28578,4183.2896 c 0.0873,2e-4 0.17198,2e-4 0.25929,0 42.29346,0.012 76.58386,-48.0915 76.58447,-107.4353 -6.1e-4,-59.3437 -34.29101,-107.4474 -76.58447,-107.4353 -42.29346,-0.012 -76.58385,48.0916 -76.58446,107.4353 3.9e-4,59.2024 34.13358,107.2477 76.3261,107.4353 z m 308.30162,0 c 0.079,2e-4 0.1852,2e-4 0.2646,0 42.2732,-0.028 76.5323,-48.1198 76.5328,-107.4353 -5e-4,-59.3154 -34.2596,-107.4074 -76.5328,-107.4353 -42.2934,-0.012 -76.5838,48.0917 -76.5844,107.4353 5e-4,59.2024 34.1336,107.2477 76.3261,107.4353 z m -334.13985,-434.3404 180.24734,-3.3073 180.24741,-3.3072 c -30.7891,-24.5331 -61.0971,-50.1678 -95.498,-69.6082 -43.8528,-26.2268 -98.30012,-32.8461 -147.17448,-18.1901 -48.56266,15.973 -93.88706,48.4296 -117.82227,94.4128 z"
           style="fill:#44445a;fill-opacity:1;fill-rule:evenodd;stroke:none;stroke-width:300;stroke-linecap:round;paint-order:stroke fill markers"
           clip-path="none"
           id="path3002" /></g><path
         sodipodi:open="true"
         sodipodi:arc-type="arc"
         sodipodi:end="6.2434388"
         sodipodi:start="3.1803326"
         sodipodi:ry="810.34521"
         sodipodi:rx="760.48242"
         sodipodi:cy="1258.7073"
         sodipodi:cx="998.6983"
         sodipodi:type="arc"
         id="path1125"
         style="fill:none;fill-rule:evenodd;stroke:#44445a;stroke-width:317.5;stroke-linecap:round;stroke-miterlimit:4;stroke-dasharray:none;stroke-opacity:1;paint-order:stroke fill markers"
         d="M 238.78647,1227.3224 A 760.48242,810.34521 0 0 1 998.31557,448.36216 760.48242,810.34521 0 0 1 1758.5801,1226.5074" /><path
         transform="rotate(90)"
         style="fill:none;fill-rule:evenodd;stroke:#44445a;stroke-width:317.5;stroke-linecap:round;stroke-miterlimit:4;stroke-dasharray:none;stroke-opacity:1;paint-order:stroke fill markers"
         id="path1127"
         sodipodi:type="arc"
         sodipodi:cx="1904.656"
         sodipodi:cy="-1615.8234"
         sodipodi:rx="760.48242"
         sodipodi:ry="810.34521"
         sodipodi:start="3.1803326"
         sodipodi:end="6.2434388"
         sodipodi:arc-type="arc"
         sodipodi:open="true"
         d="m 1144.7442,-1647.2082 a 760.48242,810.34521 0 0 1 759.5291,-778.9603 760.48242,810.34521 0 0 1 760.2645,778.1452" /><path
         sodipodi:open="true"
         sodipodi:arc-type="arc"
         sodipodi:end="6.2434388"
         sodipodi:start="3.1803326"
         sodipodi:ry="810.34521"
         sodipodi:rx="760.48242"
         sodipodi:cy="352.74957"
         sodipodi:cx="1904.656"
         sodipodi:type="arc"
         id="path1133"
         style="fill:none;fill-rule:evenodd;stroke:#44445a;stroke-width:317.5;stroke-linecap:round;stroke-miterlimit:4;stroke-dasharray:none;stroke-opacity:1;paint-order:stroke fill markers"
         transform="matrix(0,1,1,0,0,0)"
         d="m 1144.7442,321.36469 a 760.48242,810.34521 0 0 1 759.5291,-778.96023 760.48242,810.34521 0 0 1 760.2645,778.1452" /><path
         style="fill:none;fill-rule:evenodd;stroke:#44445a;stroke-width:317.5;stroke-linecap:round;stroke-miterlimit:4;stroke-dasharray:none;stroke-opacity:1;paint-order:stroke fill markers"
         id="path1135"
         sodipodi:type="arc"
         sodipodi:cx="998.6983"
         sodipodi:cy="-2521.7808"
         sodipodi:rx="760.48242"
         sodipodi:ry="810.34521"
         sodipodi:start="3.1803326"
         sodipodi:end="6.2434388"
         sodipodi:arc-type="arc"
         sodipodi:open="true"
         transform="scale(1,-1)"
         d="m 238.78647,-2553.1656 a 760.48242,810.34521 0 0 1 759.5291,-778.9603 760.48242,810.34521 0 0 1 760.26453,778.1452" /><path
         id="path953-1"
         clip-path="none"
         style="fill:#44445a;fill-opacity:1;fill-rule:evenodd;stroke:none;stroke-width:11.3386;stroke-linecap:round;paint-order:stroke fill markers"
         d="m 96.630859,1.8554688 c -8.368117,0.034532 -15.134809,7.333024 -15.134765,16.3242192 1.9e-5,9.015724 6.802351,16.324362 15.193359,16.324218 8.391007,1.42e-4 15.193337,-7.308495 15.193357,-16.324218 -2e-5,-9.0157236 -6.80235,-16.3243616 -15.193357,-16.3242192 -0.01953,-4.05e-5 -0.03906,-4.05e-5 -0.05859,0 z m -5.777343,6.4785156 c 0.0033,-7.7e-6 0.0065,-7.7e-6 0.0098,0 1.598493,-4.586e-4 2.894508,1.8176346 2.894531,4.0605466 -2.3e-5,2.242912 -1.296038,4.061006 -2.894531,4.060547 -1.598493,4.59e-4 -2.894508,-1.817635 -2.894531,-4.060547 1.5e-5,-2.237571 1.290088,-4.0534539 2.884766,-4.0605466 z m 11.652344,0 c 0.003,-7.7e-6 0.007,-7.7e-6 0.01,0 1.59773,0.00105 2.89256,1.8187036 2.89258,4.0605466 -2e-5,2.241843 -1.29485,4.059494 -2.89258,4.060547 -1.59849,4.54e-4 -2.894503,-1.817638 -2.894526,-4.060547 1.6e-5,-2.23757 1.290086,-4.0534536 2.884766,-4.0605466 z M 89.876953,24.75 96.689451,24.875 103.50195,25 c -1.16368,0.927235 -2.30918,1.896104 -3.609372,2.630859 -1.657429,0.99125 -3.71528,1.241428 -5.5625,0.6875 C 92.494639,27.714655 90.781591,26.487948 89.876953,24.75 Z"
         transform="matrix(26.458333,0,0,26.458333,-1559.5468,-623.29761)"
         sodipodi:nodetypes="ccccccsccccssccccscccccc" /><path
         sodipodi:nodetypes="ccccccsccccssccccscccccc"
         d="m 997.14465,4354.7004 c -221.40643,-0.9137 -400.44182,-194.0196 -400.44066,-431.9117 5.1e-4,-238.541 179.97887,-431.9154 401.99096,-431.9116 222.01205,0 401.99035,193.3706 401.99085,431.9116 -5e-4,238.5411 -179.9788,431.9154 -401.99085,431.9117 -0.51674,0 -1.03347,0 -1.5502,0 z M 844.28578,4183.2896 c 0.0873,2e-4 0.17198,2e-4 0.25929,0 42.29346,0.012 76.58386,-48.0915 76.58447,-107.4353 -6.1e-4,-59.3437 -34.29101,-107.4474 -76.58447,-107.4353 -42.29346,-0.012 -76.58385,48.0916 -76.58446,107.4353 3.9e-4,59.2024 34.13358,107.2477 76.3261,107.4353 z m 308.30162,0 c 0.079,2e-4 0.1852,2e-4 0.2646,0 42.2732,-0.028 76.5323,-48.1198 76.5328,-107.4353 -5e-4,-59.3154 -34.2596,-107.4074 -76.5328,-107.4353 -42.2934,-0.012 -76.5838,48.0917 -76.5844,107.4353 5e-4,59.2024 34.1336,107.2477 76.3261,107.4353 z m -334.13985,-434.3404 180.24734,-3.3073 180.24741,-3.3072 c -30.7891,-24.5331 -61.0971,-50.1678 -95.498,-69.6082 -43.8528,-26.2268 -98.30012,-32.8461 -147.17448,-18.1901 -48.56266,15.973 -93.88706,48.4296 -117.82227,94.4128 z"
         style="fill:#44445a;fill-opacity:1;fill-rule:evenodd;stroke:none;stroke-width:300;stroke-linecap:round;paint-order:stroke fill markers"
         clip-path="none"
         id="path2998" /></g><g
       aria-label="Association"
       transform="matrix(-1.3438194,-0.79596265,0.79596265,-1.3438194,18477.666,7655.5053)"
       id="text1476-8"
       style="font-style:normal;font-variant:normal;font-weight:normal;font-stretch:normal;font-size:987.777px;line-height:1.25;font-family:Casual;-inkscape-font-specification:'Casual, Normal';font-variant-ligatures:normal;font-variant-caps:normal;font-variant-numeric:normal;font-variant-east-asian:normal;letter-spacing:0px;word-spacing:0px;fill:#44445a;fill-opacity:1;stroke:none;stroke-width:1454.25"><path
         d="m 10556.362,1022.8663 q 105.332,-14.9441 193.497,-35.97477 l 30.067,-245.107 -177.863,-91.48082 3.608,-29.41284 495.574,259.82748 159.456,79.27119 -2.405,19.60856 q -222.134,50.3753 -307.238,70.7863 -85.104,20.4111 -160.403,42.0248 -74.319,21.734 -252.334,77.5213 z m 214.068,-41.41284 q 64.653,-15.95341 164.306,-49.50739 67.577,-23.5563 126.348,-40.23131 l -262.752,-137.72059 z"
         id="path924" /><path
         d="m 10938.413,1606.7582 q -18.159,51.203 -47.582,86.8828 -28.822,36.9408 -55.755,56.7346 -26.002,20.124 -27.864,19.4637 -7.989,-7.0255 -33.157,-30.6244 -24.568,-22.3377 -45.293,-49.6008 -21.055,-26.3322 -15.772,-41.2276 3.632,-10.2406 18.045,-12.4652 15.015,-0.9634 46.846,0.8931 36.817,2.5763 64.053,-0.3411 27.837,-1.6562 51.858,-16.1944 24.021,-14.5382 35.907,-48.0529 12.546,-35.3766 -0.07,-61.8604 -12.616,-26.4837 -47.993,-39.03 -35.377,-12.5464 -65.254,-2.1813 -28.947,10.6953 -51.555,33.0709 -22.938,23.3066 -55.273,64.2419 -32.995,42.7973 -58.456,67.3055 -24.86,25.7693 -58.191,37.0058 -33.33,11.2365 -74.293,-3.2908 -44.686,-15.848 -75.202,-53.9201 -29.915,-36.8109 -37.731,-85.6973 -9.077,-48.2856 8.092,-96.6957 14.857,-41.8934 48.242,-88.7447 32.124,-46.2505 65.33,-83.7326 33.206,-37.4821 34.137,-37.152 2.793,0.9905 32.616,26.2402 30.754,25.5798 52.139,50.9811 21.055,26.3321 9.857,40.1775 -5.765,7.3882 -19.908,11.8049 -14.473,5.3476 -45.222,12.2595 -66.542,16.2269 -109.751,37.585 -43.208,21.358 -58.726,65.1133 -11.556,32.5837 4.455,61.3191 15.68,29.6663 43.609,39.5713 33.514,11.886 67.413,-12.7737 33.899,-24.6597 85.93,-82.715 39.242,-42.6782 67.555,-69.319 27.983,-25.7097 60.442,-40.3995 32.459,-14.6897 66.364,-6.8577 l 13.363,3.6913 q 35.377,12.5464 68.534,43.1707 34.089,30.9545 48.091,83.0831 14.933,52.4587 -9.829,122.2809 z"
         id="path926" /><path
         d="m 10689.954,2135.8415 q -27.656,46.7616 -63.384,76.1255 -35.381,30.717 -65.614,44.969 -29.384,14.7549 -31.084,13.7493 -6.491,-8.4293 -26.658,-36.423 -19.82,-26.6406 -34.922,-57.3769 -15.605,-29.886 -7.56,-43.4894 5.532,-9.3523 20.104,-8.7669 14.92,1.9384 45.802,9.8744 35.636,9.6 62.926,11.9683 27.636,3.7214 54.003,-5.9322 26.366,-9.6536 44.468,-40.2612 19.108,-32.308 11.813,-60.722 -7.295,-28.414 -39.603,-47.5218 -32.308,-19.1077 -63.62,-14.6744 -30.462,4.9362 -56.947,22.5526 -26.988,18.4666 -66.584,52.429 -40.601,35.6628 -70.295,54.8242 -29.347,20.5144 -64.215,25.1397 -34.868,4.6252 -72.278,-17.4995 -40.81,-24.1361 -63.445,-67.3607 -22.288,-41.8716 -20.568,-91.349 0.367,-49.1299 26.514,-93.3409 22.628,-38.2596 64.39,-77.826 40.409,-39.2191 80.196,-69.6252 39.788,-30.406 40.638,-29.9032 2.551,1.5085 26.969,32.0164 25.268,31.0107 41.376,60.0465 15.605,29.8861 1.956,41.3227 -7.077,6.1433 -21.805,7.7612 -15.231,2.4681 -46.735,3.3451 -68.42,3.1436 -114.926,15.8046 -46.506,12.661 -70.14,52.6209 -17.599,29.7574 -7.406,61.033 9.69,32.1257 35.196,47.2108 30.608,18.1021 68.612,0.4127 38.005,-17.6893 100.218,-64.6697 46.708,-34.3462 79.611,-55.0525 32.4,-19.8562 67.077,-28.0377 34.676,-8.1816 66.445,6.0168 l 12.406,6.1895 q 32.308,19.1078 58.965,55.5307 27.509,36.9257 31.237,90.7731 4.58,54.3503 -33.133,118.1162 z"
         id="path928" /><path
         d="m 10296.157,2660.163 q -41.69,47.564 -103.696,73.4648 -62.005,25.9007 -135.854,12.3738 -73.8491,-13.5269 -144.6176,-79.576 -67.8799,-63.3532 -87.0891,-133.9762 -19.161,-69.227 0.9613,-134.218 20.1705,-63.5949 65.9042,-115.4917 52.666,-53.5338 117.4642,-79.5308 64.846,-24.6009 135.902,-10.9777 71.105,15.0193 137.541,77.0245 70.046,65.3751 87.234,138.1646 17.909,73.4634 -4.283,139.2247 -22.867,66.4834 -69.467,113.518 z m -19.642,-22.3855 q 37.742,-40.4391 35.576,-82.996 -2.167,-42.5569 -35.193,-88.2427 -33.699,-44.9636 -95.802,-102.925 -57.77,-53.9176 -99.22,-80.443 -42.124,-25.8033 -84.007,-24.3585 -41.8348,2.8408 -84.4394,44.1465 -37.646,43.2313 -35.5755,82.996 2.1187,41.1608 32.063,78.5662 29.2703,38.1276 89.2069,94.0671 70.768,66.0491 115.107,95.2704 43.664,29.9434 83.429,27.8729 39.091,-1.3484 78.855,-43.9539 z"
         id="path930" /><path
         d="m 9428.6609,2669.8128 q 82.0157,-55.0496 155.1549,-57.7447 73.6897,-1.875 129.4142,33.2912 55.7245,35.1662 93.7088,91.757 42.3882,63.1521 52.4759,134.8983 10.0877,71.7462 -21.2027,140.3348 -31.56,69.9591 -109.4749,122.2563 -63.1521,42.3882 -114.1024,44.4658 -51.2199,3.4482 -81.6775,-11.7981 -29.907,-14.4261 -34.311,-20.9873 0.2473,-8.4936 3.7194,-36.9965 2.6519,-27.9524 11.5954,-58.9381 8.6738,-29.615 25.077,-40.6249 17.2233,-11.5605 27.6939,7.584 l 9.0999,18.8748 q 20.6716,39.6595 27.2775,49.5014 22.5704,33.6264 53.5561,42.5699 31.5361,9.7637 77.4649,-21.0641 51.6699,-34.6812 65.737,-91.7093 13.7974,-55.6575 -41.8027,-138.4933 -45.6912,-68.0731 -114.3132,-110.0478 -68.6221,-41.9748 -136.8627,-49.7055 -68.5103,-6.3601 -113.619,23.9171 -25.4248,17.0654 -38.2665,28.0642 -13.1113,12.3694 -23.1894,31.0304 -10.3476,20.0316 -17.6397,53.4778 l -13.7065,-2.6966 q 4.2811,-32.6149 28.7852,-81.1829 23.9536,-49.3882 99.4081,-100.0339 z"
         id="path932" /><path
         d="m 9376.0141,3362.5594 q 26.8473,-12.5442 53.1083,-3.0087 26.2609,9.5354 38.8051,36.3827 12.5441,26.8473 3.0086,53.1083 -9.5354,26.2609 -36.3827,38.8051 -26.8473,12.5441 -53.1083,3.0087 -26.2609,-9.5355 -38.8051,-36.3828 -12.5441,-26.8473 -3.0087,-53.1083 9.5355,-26.2609 36.3828,-38.805 z m -92.4997,-11.2945 q -0.719,-6.2058 -7.116,-31.5641 -7.292,-24.9402 -26.2332,-77.1459 -19.836,-51.7875 -53.2871,-123.3803 -33.451,-71.5928 -61.2826,-121.825 -28.3085,-48.9192 -44.0141,-73.1991 -16.6005,-23.8617 -21.3173,-29.2898 l 143.1856,-66.902 q 1.5553,7.9955 10.9379,37.4103 8.9059,30.7278 30.4145,86.095 20.6137,55.7853 53.6466,126.4832 33.0329,70.6978 59.6688,116.0374 26.1591,46.6526 43.6545,70.0962 17.0187,24.7566 14.928,20.282 z"
         id="path934" /><path
         d="m 8629.3729,3112.2798 q -18.6382,-64.5311 -63.2406,-51.6488 -10.4389,3.015 -18.1575,8.3288 -8.3935,6.5369 -10.9664,8.3081 l -5.4818,-18.9797 q 42.2416,-31.7354 83.9971,-43.7954 45.5514,-13.1564 78.153,0.047 31.3786,12.5282 41.352,36.3796 l 0.274,0.949 q 25.1392,-33.9928 64.6606,-68.0269 38.2983,-34.709 86.6967,-48.6877 43.6534,-12.6082 90.6372,0.5536 46.9839,13.1618 68.363,87.1828 27.4092,94.8988 -30.7765,149.7459 -57.9116,55.7961 -146.1674,81.2867 -19.9288,5.7559 -62.7806,14.02 10.1414,35.1125 31.774,102.8914 14.9277,48.1243 25.5759,70.7526 10.6482,22.6283 28.7203,31.8028 17.3972,10.3975 47.7648,1.6266 33.2146,-9.5932 49.1587,-32.705 14.9951,-22.8377 18.5816,-49.5774 2.9117,-25.5166 2.5343,-62.4211 -0.905,-31.6113 2.5756,-48.0389 2.8056,-15.2045 14.1934,-18.4936 16.1328,-4.6595 43.0612,17.3793 25.9794,22.3129 47.7621,47.8942 21.1078,26.8044 26.6957,35.472 -91.8452,98.4979 -199.0807,129.4702 -99.6437,28.7796 -159.0471,-9.5834 -60.3523,-38.0889 -91.0506,-144.3755 z m 195.0727,-107.7495 q -39.8575,11.5119 -82.9861,65.0946 13.958,41.2072 58.3195,180.561 35.1332,-2.9503 42.9992,-4.194 5.968,-0.6956 20.2028,-4.807 44.6024,-12.8823 71.6396,-47.4233 27.3112,-33.5919 8.1248,-100.0211 -15.6232,-54.0922 -49.0678,-77.3335 -33.1705,-22.2922 -69.232,-11.8767 z"
         id="path936" /><path
         d="m 8341.1471,3677.2525 q 1.5053,-5.1019 4.8532,-22.2822 2.4568,-16.1045 5.3432,-38.202 1.9029,-22.0053 0.2413,-39.7075 l -147.5181,13.8471 -2.7694,-29.5036 147.518,-13.8471 q -0.064,-21.8206 -3.2383,-97.9158 -3.1744,-76.0952 -10.9287,-158.7053 -7.3851,-78.6763 -17.3477,-121.3944 -9.8702,-41.7346 -28.6198,-61.8013 -18.6573,-19.0832 -52.0948,-15.9445 -32.4539,3.0463 -47.5713,32.2447 -16.0085,30.2741 -19.4488,46.471 -3.4402,16.1968 -3.3479,17.1802 l -19.6691,1.8463 q 0.8911,-1.0757 4.1148,-30.1498 2.2401,-28.9817 36.7497,-62.9767 33.6183,-32.9192 95.5759,-38.735 78.6763,-7.3851 117.6206,37.5731 38.9443,44.9583 46.514,125.6015 1.2924,13.7683 6.59,112.483 10.9927,180.5259 13.1159,203.1454 l 88.5109,-8.3083 2.7694,29.5036 -88.5109,8.3083 q 1.6617,17.7022 8.6099,38.8766 5.9647,21.2667 12.359,36.5404 5.5031,16.3494 7.9316,21.0821 z"
         id="path938" /><path
         d="m 7992.8304,3646.6901 q 29.621,0.8538 48.7991,21.1703 19.1782,20.3165 18.3244,49.9375 -0.8537,29.621 -21.1703,48.7992 -20.3165,19.1781 -49.9375,18.3243 -29.621,-0.8537 -48.7992,-21.1702 -19.1781,-20.3166 -18.3243,-49.9376 0.8537,-29.621 21.1702,-48.7991 20.3166,-19.1782 49.9376,-18.3244 z m -77.5664,-51.6451 q 2.1455,-5.8673 7.8222,-31.3965 4.6894,-25.5577 11.22,-80.708 5.5431,-55.1787 7.8199,-134.168 2.2767,-78.9894 -0.022,-136.3705 -3.3146,-56.4222 -6.4388,-85.1697 -4.1115,-28.7759 -5.887,-35.7444 l 157.9787,4.5534 q -2.2024,7.842 -7.0341,38.3366 -5.8475,31.4534 -11.5045,90.5816 -6.6444,59.0997 -8.8927,137.1017 -2.2483,78.002 1.1803,130.4747 2.4126,53.4317 7.5115,82.2361 4.0831,29.7633 4.2254,24.8265 z"
         id="path940" /><path
         d="m 7495.44,3560.399 q -62.4083,-10.2756 -117.1529,-49.2445 -54.7447,-38.9689 -82.2665,-108.8201 -27.5218,-69.8512 -8.8192,-164.8294 17.9393,-91.1016 67.7598,-144.7162 48.6606,-52.8362 114.4742,-70.0789 64.6536,-16.4644 132.8768,-5.0437 73.2749,16.4424 129.5763,57.7314 55.1413,42.0672 81.1064,109.5984 24.8052,68.3095 7.2476,157.4727 -18.5117,94.0091 -71.2398,147.0511 -52.919,54.0112 -120.48,69.9031 -68.5302,15.701 -133.0827,0.9761 z m 8.6328,-28.5024 q 54.2733,10.6872 89.2644,-13.6316 34.9911,-24.3189 56.3392,-76.4929 20.3789,-52.3648 36.7914,-135.7131 15.2674,-77.5332 15.8963,-126.74 -0.3404,-49.3975 -23.6901,-84.1978 -24.5096,-34.0219 -82.0871,-48.38 -56.5933,-9.1306 -89.2644,13.6316 -33.8311,23.5405 -49.7757,68.7246 -16.9138,44.9932 -32.7538,125.434 -18.7026,94.9782 -20.0948,148.0616 -2.3614,52.8925 20.4008,85.5636 21.7931,32.4802 78.9738,43.74 z"
         id="path942" /><path
         d="m 6998.8501,2847.7824 q 2.0281,-4.5033 -10.5875,11.4817 -13.922,16.48 -37.3999,58.9895 -24.3786,42.104 -59.2619,119.5601 -49.4855,109.8798 -64.8161,167.9752 -15.7362,58.996 -7.7263,82.1033 6.7037,23.6023 31.0214,34.554 53.1385,23.9315 124.3576,-18.7438 l 13.8805,-28.4153 q 29.3834,-60.4332 50.0699,-106.3665 37.7226,-83.7608 59.674,-142.1244 20.6451,-57.8686 29.9329,-90.5189 8.3871,-33.056 5.9534,-27.6521 l 144.1046,64.8991 q -5.0463,6.394 -21.2231,32.6918 -17.4831,26.7928 -45.4228,79.2095 -28.8404,52.0111 -60.8844,123.1627 -32.0439,71.1516 -51.0665,125.4176 -19.9233,53.8604 -27.183,82.0075 -8.1603,27.7414 -9.1984,34.8572 l -135.098,-60.8429 29.2461,-52.9117 q -77.8813,31.0083 -164.3441,-7.9311 -58.5424,-26.3653 -74.3835,-68.166 -16.7418,-42.2063 -1.4112,-100.3017 15.3306,-58.0954 58.3263,-153.5647 38.9394,-86.4627 57.2402,-136.7205 16.9946,-49.7627 21.4149,-71.6052 3.1141,-21.3474 0.6804,-15.9435 z"
         id="path944" /></g></g></g></svg>
